<?xml version="1.0" encoding="UTF-8" standalone="no"?>
<svg
   xmlns:dc="http://purl.org/dc/elements/1.1/"
   xmlns:cc="http://creativecommons.org/ns#"
   xmlns:rdf="http://www.w3.org/1999/02/22-rdf-syntax-ns#"
   xmlns:svg="http://www.w3.org/2000/svg"
   xmlns="http://www.w3.org/2000/svg"
   xmlns:sodipodi="http://sodipodi.sourceforge.net/DTD/sodipodi-0.dtd"
   xmlns:inkscape="http://www.inkscape.org/namespaces/inkscape"
   version="1.1"
   viewBox="0 0 147.01575 151.99213"
   stroke-miterlimit="10"
   id="svg2"
   inkscape:version="0.48.2 r9819"
   width="100%"
   height="100%"
   sodipodi:docname="qmark.svg"
   style="fill:none;stroke:none">
  <metadata
     id="metadata27">
    <rdf:RDF>
      <cc:Work
         rdf:about="">
        <dc:format>image/svg+xml</dc:format>
        <dc:type
           rdf:resource="http://purl.org/dc/dcmitype/StillImage" />
      </cc:Work>
    </rdf:RDF>
  </metadata>
  <defs
     id="defs25" />
  <sodipodi:namedview
     pagecolor="#ffffff"
     bordercolor="#666666"
     borderopacity="1"
     objecttolerance="10"
     gridtolerance="10"
     guidetolerance="10"
     inkscape:pageopacity="0"
     inkscape:pageshadow="2"
     inkscape:window-width="1920"
     inkscape:window-height="1021"
     id="namedview23"
     showgrid="false"
     inkscape:zoom="1.4611111"
     inkscape:cx="360.5"
     inkscape:cy="45.750685"
     inkscape:window-x="-8"
     inkscape:window-y="-8"
     inkscape:window-maximized="1"
     inkscape:current-layer="svg2"
     fit-margin-top="0"
     fit-margin-left="0"
     fit-margin-right="0"
     fit-margin-bottom="0" />
  <clipPath
     id="p.0">
    <path
       d="M 0,0 720,0 720,540 0,540 0,0 z"
       clip-rule="nonzero"
       id="path5"
       inkscape:connector-curvature="0" />
  </clipPath>
  <path
     style="fill:#ffffff;fill-rule:evenodd"
     inkscape:connector-curvature="0"
     id="path11"
     d="m 0.5,0.5 146.01575,0 0,150.99213 -146.01575,0 z" />
  <path
     style="stroke:#000000;stroke-width:1;stroke-linecap:butt;stroke-linejoin:round"
     inkscape:connector-curvature="0"
     id="path13"
     d="m 0.5,0.5 146.01575,0 0,150.99213 -146.01575,0 z" />
  <path
     style="fill:#ffffff;fill-rule:evenodd"
     inkscape:connector-curvature="0"
     id="path15"
     d="m 123.50787,16.003937 0,0 c 0,-4.696594 3.80734,-8.503937 8.50394,-8.503937 l 0,0 c 2.25538,0 4.41839,0.8959479 6.0132,2.4907455 1.59478,1.5947975 2.49073,3.7578065 2.49073,6.0131905 l 0,0 c 0,4.696594 -3.80734,8.503937 -8.50393,8.503937 l 0,0 c -4.6966,0 -8.50394,-3.807342 -8.50394,-8.503937 z" />
  <path
     style="stroke:#000000;stroke-width:1;stroke-linecap:butt;stroke-linejoin:round"
     inkscape:connector-curvature="0"
     id="path17"
     d="m 123.50787,16.003937 0,0 c 0,-4.696594 3.80734,-8.503937 8.50394,-8.503937 l 0,0 c 2.25538,0 4.41839,0.8959479 6.0132,2.4907455 1.59478,1.5947975 2.49073,3.7578065 2.49073,6.0131905 l 0,0 c 0,4.696594 -3.80734,8.503937 -8.50393,8.503937 l 0,0 c -4.6966,0 -8.50394,-3.807342 -8.50394,-8.503937 z" />
  <path
     style="fill:#000000;fill-rule:nonzero"
     inkscape:connector-curvature="0"
     id="path21"
     d="m 91.93912,54.06357 q 0,2.9375 -0.515625,5.109375 0.515625,2.046875 0.515625,5.125 0,2.9375 -0.515625,5.125 l -6.390625,0 q 0.5,2.046875 0.5,5.109375 0,2.953125 -0.5,5.125 l -6.40625,0 q 0.515625,2.046875 0.515625,5.125 0,2.9375 -0.515625,5.109375 l -10.234375,0 Q 67.87662,87.71982 67.87662,84.78232 q 0,-3.078125 0.515625,-5.125 l 6.390625,0 q -0.5,-2.171875 -0.5,-5.125 0,-3.0625 0.5,-5.109375 l 6.40625,0 q -0.515625,-2.1875 -0.515625,-5.125 0,-3.078125 0.515625,-5.125 -0.515625,-2.171875 -0.515625,-5.109375 0,-3.078125 0.515625,-5.125 l -17.921875,0 q 0.515625,2.046875 0.515625,5.125 0,2.9375 -0.515625,5.109375 l -10.234375,0 q -0.515625,-2.171875 -0.515625,-5.109375 0,-3.078125 0.515625,-5.125 l 7.671875,0 q -0.515625,-2.171875 -0.515625,-5.125 0,-3.0625 0.515625,-5.125 l 25.609375,0 q 0.5,2.0625 0.5,5.125 0,2.953125 -0.5,5.125 l 5.109375,0 q 0.515625,2.046875 0.515625,5.125 z m -13.3125,46.07813 q 0.515625,2.04687 0.515625,5.10937 0,2.95313 -0.515625,5.125 l -10.234375,0 q -0.515625,-2.17187 -0.515625,-5.125 0,-3.0625 0.515625,-5.10937 l 10.234375,0 z" />
</svg>
